<svg width="106" height="19" viewBox="0 0 106 19" fill="none" xmlns="http://www.w3.org/2000/svg">
<path d="M3.9 3.6V7.3H10.38V9.9H3.9V15H0.66V0.999999H11.24V3.6H3.9ZM13.2134 0.159999H16.3334V15H13.2134V0.159999ZM24.3491 15.16C23.2157 15.16 22.1957 14.9267 21.2891 14.46C20.3957 13.98 19.6957 13.32 19.1891 12.48C18.6824 11.64 18.4291 10.6867 18.4291 9.62C18.4291 8.55333 18.6824 7.6 19.1891 6.76C19.6957 5.92 20.3957 5.26667 21.2891 4.8C22.1957 4.32 23.2157 4.08 24.3491 4.08C25.4824 4.08 26.4957 4.32 27.3891 4.8C28.2824 5.26667 28.9824 5.92 29.4891 6.76C29.9957 7.6 30.2491 8.55333 30.2491 9.62C30.2491 10.6867 29.9957 11.64 29.4891 12.48C28.9824 13.32 28.2824 13.98 27.3891 14.46C26.4957 14.9267 25.4824 15.16 24.3491 15.16ZM24.3491 12.6C25.1491 12.6 25.8024 12.3333 26.3091 11.8C26.8291 11.2533 27.0891 10.5267 27.0891 9.62C27.0891 8.71333 26.8291 7.99333 26.3091 7.46C25.8024 6.91333 25.1491 6.64 24.3491 6.64C23.5491 6.64 22.8891 6.91333 22.3691 7.46C21.8491 7.99333 21.5891 8.71333 21.5891 9.62C21.5891 10.5267 21.8491 11.2533 22.3691 11.8C22.8891 12.3333 23.5491 12.6 24.3491 12.6ZM49.3216 4.24L45.4216 15H42.4216L40.0016 8.32L37.5016 15H34.5016L30.6216 4.24H33.5616L36.1016 11.52L38.7416 4.24H41.3816L43.9416 11.52L46.5616 4.24H49.3216ZM53.752 5.66C54.1254 5.14 54.6254 4.74667 55.252 4.48C55.892 4.21333 56.6254 4.08 57.452 4.08V6.96C57.1054 6.93333 56.872 6.92 56.752 6.92C55.8587 6.92 55.1587 7.17333 54.652 7.68C54.1454 8.17333 53.892 8.92 53.892 9.92V15H50.772V4.24H53.752V5.66ZM64.0491 15.24C62.9424 15.24 61.8691 15.0933 60.8291 14.8C59.8024 14.4933 58.9757 14.1 58.3491 13.62L59.4491 11.18C60.0491 11.62 60.7624 11.9733 61.5891 12.24C62.4157 12.5067 63.2424 12.64 64.0691 12.64C64.9891 12.64 65.6691 12.5067 66.1091 12.24C66.5491 11.96 66.7691 11.5933 66.7691 11.14C66.7691 10.8067 66.6357 10.5333 66.3691 10.32C66.1157 10.0933 65.7824 9.91333 65.3691 9.78C64.9691 9.64667 64.4224 9.5 63.7291 9.34C62.6624 9.08667 61.7891 8.83333 61.1091 8.58C60.4291 8.32667 59.8424 7.92 59.3491 7.36C58.8691 6.8 58.6291 6.05333 58.6291 5.12C58.6291 4.30667 58.8491 3.57333 59.2891 2.92C59.7291 2.25333 60.3891 1.72667 61.2691 1.34C62.1624 0.953333 63.2491 0.76 64.5291 0.76C65.4224 0.76 66.2957 0.866666 67.1491 1.08C68.0024 1.29333 68.7491 1.6 69.3891 2L68.3891 4.46C67.0957 3.72667 65.8024 3.36 64.5091 3.36C63.6024 3.36 62.9291 3.50667 62.4891 3.8C62.0624 4.09333 61.8491 4.48 61.8491 4.96C61.8491 5.44 62.0957 5.8 62.5891 6.04C63.0957 6.26667 63.8624 6.49333 64.8891 6.72C65.9557 6.97333 66.8291 7.22667 67.5091 7.48C68.1891 7.73333 68.7691 8.13333 69.2491 8.68C69.7424 9.22667 69.9891 9.96667 69.9891 10.9C69.9891 11.7 69.7624 12.4333 69.3091 13.1C68.8691 13.7533 68.2024 14.2733 67.3091 14.66C66.4157 15.0467 65.3291 15.24 64.0491 15.24ZM78.343 4.08C79.343 4.08 80.2496 4.31333 81.063 4.78C81.8896 5.23333 82.5363 5.88 83.003 6.72C83.4696 7.54667 83.703 8.51333 83.703 9.62C83.703 10.7267 83.4696 11.7 83.003 12.54C82.5363 13.3667 81.8896 14.0133 81.063 14.48C80.2496 14.9333 79.343 15.16 78.343 15.16C76.9696 15.16 75.8896 14.7267 75.103 13.86V18.88H71.983V4.24H74.963V5.48C75.7363 4.54667 76.863 4.08 78.343 4.08ZM77.803 12.6C78.603 12.6 79.2563 12.3333 79.763 11.8C80.283 11.2533 80.543 10.5267 80.543 9.62C80.543 8.71333 80.283 7.99333 79.763 7.46C79.2563 6.91333 78.603 6.64 77.803 6.64C77.003 6.64 76.343 6.91333 75.823 7.46C75.3163 7.99333 75.063 8.71333 75.063 9.62C75.063 10.5267 75.3163 11.2533 75.823 11.8C76.343 12.3333 77.003 12.6 77.803 12.6ZM90.9116 15.16C89.7782 15.16 88.7582 14.9267 87.8516 14.46C86.9582 13.98 86.2582 13.32 85.7516 12.48C85.2449 11.64 84.9916 10.6867 84.9916 9.62C84.9916 8.55333 85.2449 7.6 85.7516 6.76C86.2582 5.92 86.9582 5.26667 87.8516 4.8C88.7582 4.32 89.7782 4.08 90.9116 4.08C92.0449 4.08 93.0582 4.32 93.9516 4.8C94.8449 5.26667 95.5449 5.92 96.0516 6.76C96.5582 7.6 96.8116 8.55333 96.8116 9.62C96.8116 10.6867 96.5582 11.64 96.0516 12.48C95.5449 13.32 94.8449 13.98 93.9516 14.46C93.0582 14.9267 92.0449 15.16 90.9116 15.16ZM90.9116 12.6C91.7116 12.6 92.3649 12.3333 92.8716 11.8C93.3916 11.2533 93.6516 10.5267 93.6516 9.62C93.6516 8.71333 93.3916 7.99333 92.8716 7.46C92.3649 6.91333 91.7116 6.64 90.9116 6.64C90.1116 6.64 89.4516 6.91333 88.9316 7.46C88.4116 7.99333 88.1516 8.71333 88.1516 9.62C88.1516 10.5267 88.4116 11.2533 88.9316 11.8C89.4516 12.3333 90.1116 12.6 90.9116 12.6ZM105.837 14.48C105.53 14.7067 105.15 14.88 104.697 15C104.257 15.1067 103.79 15.16 103.297 15.16C102.017 15.16 101.024 14.8333 100.317 14.18C99.6237 13.5267 99.277 12.5667 99.277 11.3V6.88H97.617V4.48H99.277V1.86H102.397V4.48H105.077V6.88H102.397V11.26C102.397 11.7133 102.51 12.0667 102.737 12.32C102.977 12.56 103.31 12.68 103.737 12.68C104.23 12.68 104.65 12.5467 104.997 12.28L105.837 14.48Z" fill="#EAA79E"/>
</svg>
